<svg width="203" height="208" viewBox="0 0 203 208" fill="none" xmlns="http://www.w3.org/2000/svg">
<path d="M199.065 102.183C190.042 133.726 175.765 165.228 158.517 185.452C149.893 195.563 140.558 202.818 130.802 205.881C121.07 208.936 110.873 207.835 100.453 201.144C89.8576 194.341 78.7968 190.378 68.0888 186.852C66.7801 186.421 65.4772 185.997 64.1813 185.575C54.8554 182.538 45.8906 179.619 37.7559 175.187C28.5111 170.15 20.3524 163.165 14.03 151.84C7.70152 140.504 3.19681 124.792 1.31847 102.279C-0.560653 79.756 0.854308 63.3863 4.96349 51.2366C9.06628 39.1059 15.8613 31.1619 24.7997 25.4891C33.7579 19.8037 44.8853 16.3882 57.6739 13.3593C62.3564 12.2502 67.2669 11.192 72.3703 10.0922C81.1702 8.19586 90.5438 6.17585 100.312 3.55818C161.687 -12.8884 217.017 39.4248 199.065 102.183Z" fill="#C4C4C4" stroke="#C4C4C4"/>
</svg>
